<?xml version="1.0" encoding="UTF-8" ?>
<svg xmlns="http://www.w3.org/2000/svg" width="100" height="100">
  <g transform="translate(10,23)" fill="#ee0000">
    <polygon points="40,0 28.8,11.2 40,22.4 51.2,11.2" />
    <polygon points="26,14 0,40 38,40 38,26" />
    <polygon points="54,14 42,26 42,40 80,40" />
    <path
      d="m 10.725862,44.196592 v 2.424639 H 1.959434 v 4.823068 h 8.766428 v 2.411533 H 2.479909 q -0.571502,0 -0.989922,-0.196592 Q 1.081771,53.449541 0.704172,52.964613 0.336778,52.479686 0.183697,52.0865 0,51.614678 0,51.011795 v -3.250328 q 0,-1.009174 0.163286,-1.612058 0.204108,-0.747051 0.724583,-1.284404 0.418421,-0.432503 0.918485,-0.576671 0.336777,-0.09175 1.051155,-0.09175 z"
    />
    <path
      d="m 11.7566,44.209697 8.225541,0.01311 q 0.673556,0 1.17362,0.432503 0.459242,0.393186 0.826637,1.205767 0.163285,0.353867 0.224518,0.694627 0.07144,0.327654 0.07144,0.681521 0,0.615989 -0.214313,1.218873 -0.07144,0.196592 -0.214313,0.471822 0.163286,0.275228 0.244929,0.471821 0.255135,0.61599 0.255135,1.166449 v 3.289646 H 20.41077 v -3.617301 h -6.684528 v 3.617301 h -1.979846 z m 2.020666,3.604195 h 6.602886 v -1.166449 h -6.602886 z"
    />
    <path
      d="m 25.880844,44.222803 h 5.561935 q 0.581707,0 1.010334,0.288336 0.438832,0.288335 0.816431,0.904325 0.285751,0.471823 0.408215,0.904326 0.13267,0.419397 0.13267,0.982962 v 3.577982 q 0,0.629095 -0.173492,1.100918 -0.163286,0.458715 -0.530679,0.930537 -0.704172,0.904324 -1.694095,0.904324 h -5.806865 q -0.591913,0 -1.010333,-0.222804 -0.408216,-0.235911 -0.796021,-0.78637 -0.326572,-0.471821 -0.459242,-0.930537 -0.13267,-0.471822 -0.13267,-1.140236 v -3.656619 q 0,-0.629095 0.224519,-1.140237 0.193902,-0.445609 0.602117,-0.904324 0.418421,-0.458716 0.836842,-0.629096 0.428626,-0.183487 1.010334,-0.183487 z m 5.94974,2.503278 h -6.674323 v 4.665793 h 6.674323 z"
    />
    <path
      d="m 34.820751,46.31979 q 0,-0.720839 0.285751,-1.245086 0.295956,-0.524246 0.836842,-0.851901 0.193901,-0.117954 0.377599,-0.170379 Q 36.514845,44 36.708748,44 q 0.41842,0 0.806225,0.249018 0.39801,0.23591 0.765404,0.694625 l 5.13331,6.487551 V 44.222805 H 45.3323 v 7.064221 q 0,0.865006 -0.234725,1.454783 -0.234724,0.589778 -0.775609,0.969857 -0.193902,0.131061 -0.428626,0.209698 Q 43.658616,54 43.454508,54 43.036087,54 42.627872,53.764089 42.219656,53.515072 41.862468,53.056357 l -5.13331,-6.435126 v 7.27392 l -1.908407,-0.03932 z"
    />
    <path
      d="m 46.322211,46.31979 q 0,-0.720839 0.285751,-1.245086 0.295956,-0.524246 0.836842,-0.851901 0.193902,-0.117954 0.377599,-0.170379 Q 48.016305,44 48.210208,44 q 0.418421,0 0.806225,0.249018 0.39801,0.23591 0.765404,0.694625 l 5.13331,6.487551 v -7.208389 h 1.918612 v 7.064221 q 0,0.865006 -0.234723,1.454783 -0.234724,0.589778 -0.77561,0.969857 Q 55.629524,53.842727 55.3948,53.921364 55.160076,54 54.955969,54 54.537548,54 54.129333,53.764089 53.721117,53.515072 53.363928,53.056357 l -5.133309,-6.435126 v 7.27392 l -1.908408,-0.03932 z"
    />
    <path
      d="m 60.456661,44.222803 h 5.561936 q 0.581707,0 1.010334,0.288336 0.438831,0.288335 0.81643,0.904325 0.285752,0.471823 0.408216,0.904326 0.13267,0.419397 0.13267,0.982962 v 3.577982 q 0,0.629095 -0.173492,1.100918 -0.163286,0.458715 -0.53068,0.930537 -0.704171,0.904324 -1.694094,0.904324 h -5.806865 q -0.591913,0 -1.010333,-0.222804 -0.408216,-0.235911 -0.796021,-0.78637 Q 58.04819,52.335518 57.91552,51.876802 57.78285,51.40498 57.78285,50.736566 v -3.656619 q 0,-0.629095 0.224518,-1.140237 0.193903,-0.445609 0.602118,-0.904324 0.418421,-0.458716 0.836842,-0.629096 0.428626,-0.183487 1.010333,-0.183487 z m 5.949741,2.503278 h -6.674323 v 4.665793 h 6.674323 z"
    />
    <path
      d="m 69.406774,44.209697 8.225542,0.01311 q 0.673559,0 1.173619,0.432503 0.459239,0.393186 0.826633,1.205767 0.163283,0.353867 0.224515,0.694627 0.07148,0.327654 0.07148,0.681521 0,0.615989 -0.214314,1.218873 -0.07148,0.196592 -0.214314,0.471822 0.163292,0.275228 0.244934,0.471821 Q 80,50.015733 80,50.566192 v 3.289646 h -1.939023 v -3.617301 h -6.684528 v 3.617301 h -1.979881 z m 2.020667,3.604195 h 6.602885 v -1.166449 h -6.602885 z"
    />
  </g>
</svg>
